<svg width="56" height="56" viewBox="0 0 56 56" fill="none" xmlns="http://www.w3.org/2000/svg">
<path fill-rule="evenodd" clip-rule="evenodd" d="M28.0551 0.713867C12.9776 0.713867 0.712585 12.9788 0.712585 28.0564C0.712585 43.1339 12.9776 55.3989 28.0551 55.3989C42.5986 55.3989 54.5076 43.9706 55.3264 29.6229C52.6295 34.4737 49.1761 38.7816 46.141 41.7988C43.4086 45.3858 39.6792 48.1627 35.318 49.6313C36.4305 47.4863 37.285 44.8517 37.9525 41.9412C36.6619 40.6418 35.1666 39.0397 33.609 37.1706H21.8603C21.5488 35.0789 21.3708 32.7915 21.2907 30.3349H28.6959C27.8059 28.8752 26.9959 27.3532 26.275 25.7778H21.2907C21.3708 23.3213 21.5488 21.0338 21.8603 18.9422H23.9964C23.6938 17.438 23.498 15.916 23.498 14.3851H22.786C23.1064 13.1301 23.4802 11.982 23.854 10.9673C24.6195 6.94426 26.6755 3.41074 29.6216 0.785072C29.4696 0.777345 29.3184 0.768127 29.1675 0.758929C28.797 0.73634 28.4283 0.713867 28.0551 0.713867ZM41.7264 0.713867C34.2054 0.713867 28.0551 6.86415 28.0551 14.3851C28.0551 16.6459 28.9274 18.9511 30.0488 21.5056C31.1703 24.06 32.5855 26.7658 34.0363 29.2669C36.9379 34.269 39.875 38.4522 39.875 38.4522L41.7264 41.158L43.5777 38.4522C43.5777 38.4522 46.5149 34.269 49.4164 29.2669C50.8672 26.7658 52.2824 24.06 53.4039 21.5056C54.5254 18.9511 55.3976 16.6459 55.3976 14.3851C55.3976 6.86415 49.2473 0.713867 41.7264 0.713867ZM50.8405 14.3851C50.8405 9.32961 46.7819 5.27095 41.7264 5.27095C36.6708 5.27095 32.6122 9.32961 32.6122 14.3851C32.6122 15.2663 33.164 17.349 34.1787 19.6543C35.1933 21.9595 36.6263 24.5763 38.0237 26.9883C39.6542 29.7967 40.4709 31.0188 41.349 32.3327L41.3491 32.3327L41.3508 32.3354L41.356 32.3431C41.4775 32.5249 41.6001 32.7084 41.7264 32.8983C41.855 32.7048 41.9799 32.5178 42.1037 32.3327L42.1037 32.3327L42.1038 32.3325C42.9818 31.0187 43.7986 29.7966 45.429 26.9883C46.8264 24.5763 48.2594 21.9595 49.274 19.6543C50.2887 17.349 50.8405 15.2663 50.8405 14.3851ZM20.7922 6.48143C19.653 8.67987 18.7629 11.3767 18.0865 14.3851H9.89796C12.6393 10.7448 16.3865 7.95892 20.7922 6.48143ZM38.3085 14.3851C38.3085 12.4982 39.8394 10.9673 41.7264 10.9673C43.6133 10.9673 45.1442 12.4982 45.1442 14.3851C45.1442 16.272 43.6133 17.8029 41.7264 17.8029C39.8394 17.8029 38.3085 16.272 38.3085 14.3851ZM7.19219 18.9422H17.3032C17.0006 21.1584 16.8048 23.4548 16.7336 25.7778H5.41208C5.6524 23.3658 6.25763 21.0694 7.19219 18.9422ZM16.7336 30.3349H5.41208C5.6524 32.747 6.25763 35.0433 7.19219 37.1706H17.3032C17.0006 34.9543 16.8048 32.658 16.7336 30.3349ZM9.89796 41.7276H18.0865C18.7629 44.736 19.6441 47.4329 20.7922 49.6313C16.3865 48.1538 12.6393 45.368 9.89796 41.7276ZM28.0551 50.8418C29.7106 50.8418 31.8734 47.4596 33.3242 41.7276H22.786C24.2279 47.4596 26.3996 50.8418 28.0551 50.8418Z" fill="white"/>
</svg>
