<svg width="55" height="56" viewBox="0 0 55 56" fill="none" xmlns="http://www.w3.org/2000/svg">
<path opacity="0.398839" fill-rule="evenodd" clip-rule="evenodd" d="M0.0529175 28.0564C0.0529175 12.9788 12.3179 0.713867 27.3954 0.713867C36.8923 0.713867 45.2766 5.52907 50.1809 12.8898V5.27095H54.7379V21.2208H38.7881V16.6637H47.0479C43.1138 9.87254 35.8332 5.27095 27.3954 5.27095C14.7833 5.27095 4.61 15.4443 4.61 28.0564C4.61 40.6685 14.7833 50.8418 27.3954 50.8418C40.0075 50.8418 50.1809 40.6685 50.1809 28.0564H54.7379C54.7379 43.1339 42.473 55.3989 27.3954 55.3989C12.3179 55.3989 0.0529175 43.1339 0.0529175 28.0564ZM25.1169 30.3349V9.82804H29.674V25.7778H41.0667V30.3349H25.1169Z" fill="white"/>
</svg>
