<svg width="64" height="66" viewBox="0 0 64 66" fill="none" xmlns="http://www.w3.org/2000/svg">
<path fill-rule="evenodd" clip-rule="evenodd" d="M24.6003 2.42726L24.9889 0.406494H38.9788L39.3674 2.42726L40.8441 9.81084C43.2146 10.7435 45.352 12.0551 47.295 13.6192L54.5232 11.1321L56.4662 10.5103L57.4766 12.2979L62.4508 20.8473L63.4612 22.6349L61.9845 23.9562L56.3885 28.8527C56.4243 29.0761 56.4619 29.2996 56.4996 29.5234C56.6765 30.5744 56.8548 31.6335 56.8548 32.7388C56.8548 33.8441 56.6765 34.9032 56.4996 35.9542C56.4619 36.178 56.4243 36.4014 56.3885 36.6249L61.9845 41.5214L63.4612 42.8426L62.4508 44.6302L57.4766 53.1796L56.4662 54.9672L54.5232 54.3455L47.295 51.8584C45.352 53.4225 43.2146 54.7341 40.8441 55.6667L39.3674 63.0503L38.9788 65.0711H24.9889L24.6003 63.0503L23.1235 55.6667C20.753 54.7341 18.6157 53.4225 16.6726 51.8584L9.44448 54.3455L7.50144 54.9672L6.49105 53.1796L1.51685 44.6302L0.50647 42.8426L1.98319 41.5214L7.57916 36.6249C7.54336 36.4015 7.50576 36.1782 7.46809 35.9545L7.46807 35.9543L7.46806 35.9542C7.29113 34.9032 7.11283 33.8441 7.11283 32.7388C7.11283 31.6335 7.29113 30.5743 7.46806 29.5233L7.46807 29.5233L7.46807 29.5232C7.50574 29.2995 7.54335 29.0761 7.57916 28.8527L1.98319 23.9562L0.50647 22.6349L1.51685 20.8473L6.49105 12.2979L7.50144 10.5103L9.44448 11.1321L16.6726 13.6192C18.6157 12.0551 20.753 10.7435 23.1235 9.81084L24.6003 2.42726ZM34.9373 5.38069H29.0304L27.7868 11.8316L27.476 13.3083L26.077 13.7747C23.2498 14.6587 20.685 16.1549 18.5379 18.1271L17.4498 19.1375L16.0508 18.6711L9.75537 16.4949L6.80194 21.5468L11.7761 25.977L12.942 26.9097L12.5534 28.3864C12.2328 29.8048 12.087 31.2524 12.087 32.7388C12.087 34.2252 12.2328 35.6728 12.5534 37.0912L12.942 38.5679L11.7761 39.5006L6.80194 43.9307L9.75537 48.9827L16.0508 46.8065L17.4498 46.3401L18.5379 47.3505C20.685 49.3227 23.2498 50.8188 26.077 51.7029L27.476 52.1693L27.7868 53.646L29.0304 60.0969H34.9373L36.1808 53.646L36.4917 52.1693L37.8907 51.7029C40.7178 50.8188 43.2826 49.3227 45.4297 47.3505L46.5178 46.3401L47.9168 46.8065L54.2123 48.9827L57.1657 43.9307L52.1915 39.5006L51.1034 38.5679L51.4143 37.0912C51.7349 35.6728 51.8806 34.2252 51.8806 32.7388C51.8806 31.2524 51.7349 29.8048 51.4143 28.3864L51.0257 26.9097L52.1915 25.977L57.1657 21.5468L54.2123 16.4949L47.9168 18.6711L46.5178 19.1375L45.4297 18.1271C43.2826 16.1549 40.7178 14.6587 37.8907 13.7747L36.4917 13.3083L36.1808 11.8316L34.9373 5.38069ZM31.9838 20.3033C25.1443 20.3033 19.5483 25.8993 19.5483 32.7388C19.5483 39.5783 25.1443 45.1743 31.9838 45.1743C38.8234 45.1743 44.4193 39.5783 44.4193 32.7388C44.4193 25.8993 38.8234 20.3033 31.9838 20.3033ZM39.4451 32.7388C39.4451 28.5904 36.1322 25.2775 31.9838 25.2775C27.8354 25.2775 24.5225 28.5904 24.5225 32.7388C24.5225 36.8872 27.8354 40.2001 31.9838 40.2001C36.1322 40.2001 39.4451 36.8872 39.4451 32.7388Z" fill="white"/>
</svg>
