<svg width="56" height="56" viewBox="0 0 56 56" fill="none" xmlns="http://www.w3.org/2000/svg">
<path opacity="0.398839" fill-rule="evenodd" clip-rule="evenodd" d="M16.7087 0.713867V16.6637C18.293 16.6637 19.8239 16.8684 21.2658 17.3045V5.27095H39.4941V16.6637H50.8869V46.2847H35.0083C35.7292 47.7177 36.3522 49.2397 36.7172 50.8418H55.4439V14.5987L41.5591 0.713867H16.7087ZM16.7087 21.2208C10.4427 21.2208 5.316 26.3475 5.316 32.6135C5.316 36.0669 6.927 39.1376 9.37465 41.2292C4.25683 43.8905 0.758911 49.2486 0.758911 55.3989H5.316C5.316 49.0795 10.3893 44.0062 16.7087 44.0062C23.0281 44.0062 28.1014 49.0795 28.1014 55.3989H32.6585C32.6585 49.2486 29.1695 43.8905 24.0428 41.2292C26.4904 39.1376 28.1014 36.0669 28.1014 32.6135C28.1014 26.3475 22.9747 21.2208 16.7087 21.2208ZM23.5443 32.6135C23.5443 28.8129 20.5092 25.7778 16.7087 25.7778C12.9082 25.7778 9.87308 28.8129 9.87308 32.6135C9.87308 36.414 12.9082 39.4491 16.7087 39.4491C20.5092 39.4491 23.5443 36.414 23.5443 32.6135Z" fill="white"/>
</svg>
